<?xml version="1.0" encoding="UTF-8" standalone="no"?>
<!-- Created with Inkscape (http://www.inkscape.org/) -->

<svg
   xmlns:dc="http://purl.org/dc/elements/1.1/"
   xmlns:cc="http://creativecommons.org/ns#"
   xmlns:rdf="http://www.w3.org/1999/02/22-rdf-syntax-ns#"
   xmlns:svg="http://www.w3.org/2000/svg"
   xmlns="http://www.w3.org/2000/svg"
   xmlns:sodipodi="http://sodipodi.sourceforge.net/DTD/sodipodi-0.dtd"
   xmlns:inkscape="http://www.inkscape.org/namespaces/inkscape"
   width="210mm"
   height="297mm"
   viewBox="0 0 744.09448819 1052.3622047"
   id="svg2"
   version="1.1"
   inkscape:version="0.91 r13725"
   inkscape:export-filename="C:\Users\Admin\Desktop\eigenes\flame.png"
   inkscape:export-xdpi="157.69647"
   inkscape:export-ydpi="157.69647"
   sodipodi:docname="flamelogo.svg">
  <defs
     id="defs4">
    <inkscape:path-effect
       fuse_tolerance="0"
       vertical_pattern="false"
       prop_units="false"
       tang_offset="0"
       normal_offset="0"
       spacing="0"
       scale_y_rel="false"
       prop_scale="1"
       copytype="single_stretched"
       pattern="m 210.41512,-123.8088 c 39.06302,0 82.86517,40.021858 82.86517,40.021858 0,0 -43.80215,40.02187 -82.86517,40.02187 -39.06302,0 -82.86517,-40.02187 -82.86517,-40.02187 0,0 43.80215,-40.021858 82.86517,-40.021858 z"
       is_visible="true"
       id="path-effect4336"
       effect="skeletal" />
    <inkscape:path-effect
       is_visible="true"
       id="path-effect4334"
       effect="spiro" />
    <inkscape:path-effect
       fuse_tolerance="0"
       vertical_pattern="false"
       prop_units="false"
       tang_offset="0"
       normal_offset="0"
       spacing="0"
       scale_y_rel="false"
       prop_scale="1"
       copytype="single_stretched"
       pattern="m 86.565129,-144.86754 c 39.063021,0 82.865171,40.02186 82.865171,40.02186 0,0 -43.80215,40.021868 -82.865171,40.021868 -39.063024,0 -82.8651743,-40.021868 -82.8651743,-40.021868 0,0 43.8021503,-40.02186 82.8651743,-40.02186 z"
       is_visible="true"
       id="path-effect4330"
       effect="skeletal" />
    <inkscape:path-effect
       is_visible="true"
       id="path-effect4328"
       effect="spiro" />
    <inkscape:path-effect
       effect="skeletal"
       id="path-effect4319"
       is_visible="true"
       pattern="m 188.34337,-236.17406 c 39.06302,0 82.86517,40.02186 82.86517,40.02186 0,0 -43.80215,40.02187 -82.86517,40.02187 -39.06302,0 -82.86517,-40.02187 -82.86517,-40.02187 0,0 43.80215,-40.02186 82.86517,-40.02186 z"
       copytype="single_stretched"
       prop_scale="1"
       scale_y_rel="false"
       spacing="0"
       normal_offset="0"
       tang_offset="0"
       prop_units="false"
       vertical_pattern="false"
       fuse_tolerance="0" />
    <inkscape:path-effect
       effect="spiro"
       id="path-effect4317"
       is_visible="true" />
  </defs>
  <sodipodi:namedview
     id="base"
     pagecolor="#ffffff"
     bordercolor="#666666"
     borderopacity="1.0"
     inkscape:pageopacity="0.0"
     inkscape:pageshadow="2"
     inkscape:zoom="0.49837466"
     inkscape:cx="196.60922"
     inkscape:cy="825.04215"
     inkscape:document-units="px"
     inkscape:current-layer="layer1"
     showgrid="false"
     inkscape:window-width="1366"
     inkscape:window-height="706"
     inkscape:window-x="-8"
     inkscape:window-y="-8"
     inkscape:window-maximized="1" />
  <metadata
     id="metadata7">
    <rdf:RDF>
      <cc:Work
         rdf:about="">
        <dc:format>image/svg+xml</dc:format>
        <dc:type
           rdf:resource="http://purl.org/dc/dcmitype/StillImage" />
        <dc:title></dc:title>
      </cc:Work>
    </rdf:RDF>
  </metadata>
  <g
     inkscape:label="Ebene 1"
     inkscape:groupmode="layer"
     id="layer1">
    <rect
       style="opacity:1;fill:#800000;fill-opacity:0;fill-rule:nonzero;stroke:none;stroke-width:3;stroke-linecap:round;stroke-linejoin:round;stroke-miterlimit:4;stroke-dasharray:none;stroke-dashoffset:0;stroke-opacity:1"
       id="rect4138"
       width="199"
       height="199"
       x="28.452106"
       y="18.10988" />
    <rect
       style="opacity:1;fill:#004a00;fill-opacity:0;fill-rule:nonzero;stroke:none;stroke-width:3;stroke-linecap:round;stroke-linejoin:round;stroke-miterlimit:4;stroke-dasharray:none;stroke-dashoffset:0;stroke-opacity:1"
       id="rect4140"
       width="230"
       height="230"
       x="19.452106"
       y="28.10988" />
    <g
       id="g4250"
       transform="matrix(0.41376813,0,0,0.41376813,3.0425932,61.2904)">
      <rect
         y="44.109879"
         x="103.4521"
         height="174"
         width="174"
         id="rect4136"
         style="color:#000000;clip-rule:nonzero;display:inline;overflow:visible;visibility:visible;opacity:0.93000034;isolation:auto;mix-blend-mode:normal;color-interpolation:sRGB;color-interpolation-filters:linearRGB;solid-color:#000000;solid-opacity:1;fill:#27494e;fill-opacity:0;fill-rule:evenodd;stroke:none;stroke-width:3;stroke-linecap:round;stroke-linejoin:round;stroke-miterlimit:4;stroke-dasharray:none;stroke-dashoffset:0;stroke-opacity:1;color-rendering:auto;image-rendering:auto;shape-rendering:auto;text-rendering:auto;enable-background:accumulate" />
      <rect
         y="175.10986"
         x="226.4521"
         height="65"
         width="68"
         id="rect4150"
         style="opacity:1;fill:#ff2a2a;fill-opacity:0;fill-rule:nonzero;stroke:none;stroke-width:3;stroke-linecap:round;stroke-linejoin:round;stroke-miterlimit:4;stroke-dasharray:none;stroke-dashoffset:0;stroke-opacity:1" />
      <rect
         y="167.10986"
         x="194.4521"
         height="135"
         width="152"
         id="rect4152"
         style="opacity:1;fill:#ff2a2a;fill-opacity:0;fill-rule:nonzero;stroke:none;stroke-width:3;stroke-linecap:round;stroke-linejoin:round;stroke-miterlimit:4;stroke-dasharray:none;stroke-dashoffset:0;stroke-opacity:1" />
      <path
         inkscape:path-effect="#path-effect4317;#path-effect4319"
         inkscape:connector-curvature="0"
         inkscape:original-d="m 361.75232,17.035648 c -20.92462,31.28752 -25.01113,69.20773 -30.26034,107.719822 -14.09363,103.40066 103.12125,87.51435 137.30612,162.43213 39.12759,85.75003 -10.99468,155.07983 -18.3454,232.07868"
         id="path4315"
         d="m 470.80446,228.76363 c 10.44879,10.31085 20.57854,22.12583 29.62199,35.60223 30.52025,46.25519 36.80635,99.67092 27.11238,144.22952 -9.11616,41.48084 -30.51888,70.39778 -47.41824,87.30482 -17.0753,17.08306 -29.66789,23.36608 -29.66789,23.36608 0,0 7.89829,-11.77205 15.60851,-32.57201 7.80746,-21.06233 14.25521,-50.0886 10.88374,-82.09825 -3.47678,-33.91996 -17.71514,-67.92087 -39.7752,-94.58668 -6.5318,-8.11122 -14.28868,-16.00873 -22.59584,-24.17903 -2.93543,-2.88707 -5.94677,-5.81492 -9.04088,-8.82659 0,0 -10e-6,-10e-6 -10e-6,-10e-6 -11.90556,-11.44607 -25.27677,-23.81874 -38.40131,-37.66943 -13.76806,-14.38323 -26.61266,-30.3697 -37.2256,-48.18163 -11.44482,-18.98842 -18.85893,-39.70164 -21.5282,-60.39405 -3.23124,-26.78951 2.62517,-50.194121 11.03304,-67.507134 8.88671,-18.263996 20.64048,-30.067155 28.73017,-36.752809 8.31014,-6.867847 13.6112,-9.463005 13.6112,-9.463005 0,0 -3.37876,4.906833 -7.51788,14.170869 -4.11826,9.217338 -8.74975,22.871565 -9.51657,39.154092 -0.73815,15.365536 2.04422,32.639447 9.88818,48.391727 5.89892,12.24385 14.94983,23.3686 26.03397,34.62016 10.62065,10.68653 22.92239,20.36698 36.59663,30.98777 13.36395,10.28792 27.90236,21.13346 42.35704,33.97402 0,0 1e-5,2e-5 1e-5,2e-5 3.78042,3.32303 7.52614,6.79335 11.21076,10.42932 z"
         style="fill:#ff2a2a;fill-rule:evenodd;stroke:none;stroke-width:1px;stroke-linecap:butt;stroke-linejoin:miter;stroke-opacity:1" />
      <path
         inkscape:path-effect="#path-effect4328;#path-effect4330"
         style="fill:#ff2a2a;fill-rule:evenodd;stroke:none;stroke-width:1px;stroke-linecap:butt;stroke-linejoin:miter;stroke-opacity:1"
         d="m 248.96628,308.69609 c 6.03084,-5.92735 11.62778,-11.44354 16.26866,-16.9354 15.68702,-17.84573 27.44231,-41.22306 31.67049,-65.64954 4.0959,-23.14043 0.96605,-45.07467 -3.81936,-61.57183 -4.70356,-16.21503 -10.1224,-25.79405 -10.1224,-25.79405 0,0 10.10977,4.08967 24.18179,16.58811 13.9005,12.34612 31.93892,34.16256 40.35385,66.77841 8.94512,35.05429 5.13698,77.86808 -19.00767,115.29238 -7.15531,10.85976 -15.11956,20.28798 -23.29482,28.3586 -2.88289,2.846 -5.80901,5.54021 -8.75687,8.09609 0,0 -1e-5,1e-5 -1e-5,1e-5 -11.25851,9.89518 -22.4194,17.93259 -32.57163,25.29306 -10.3624,7.59865 -19.59055,14.1539 -27.65167,21.39489 -8.3623,7.59075 -15.4022,14.85104 -20.2709,23.10738 -6.51237,10.59596 -9.64647,22.94403 -10.02691,34.34837 -0.41886,12.10401 2.25919,22.6587 4.88225,29.95653 2.62788,7.31125 4.9577,11.30718 4.9577,11.30718 0,0 -4.25047,-1.68327 -11.05102,-6.59931 -6.60656,-4.77581 -16.38276,-13.46012 -24.09585,-27.55525 -7.2937,-13.35859 -12.78955,-31.82382 -10.89431,-53.4638 1.63418,-16.70331 7.04701,-33.55523 15.76514,-48.88126 8.04325,-14.36008 17.83457,-27.23395 28.28063,-38.58875 9.91612,-10.92603 19.90323,-20.48498 28.6159,-28.98845 0,0 1e-5,-10e-6 1e-5,-10e-6 2.25414,-2.23723 4.4607,-4.40356 6.587,-6.49336 z"
         id="path4326"
         inkscape:original-d="M 215.75878,519.26628 C 199.905,495.5609 196.80879,466.83022 192.83167,437.65106 182.15347,359.30832 270.96271,371.34479 296.86329,314.58243 326.50875,249.6129 288.53304,197.08435 282.96367,138.74527"
         inkscape:connector-curvature="0" />
      <path
         inkscape:path-effect="#path-effect4334;#path-effect4336"
         style="fill:#ff2a2a;fill-rule:evenodd;stroke:none;stroke-width:1px;stroke-linecap:butt;stroke-linejoin:miter;stroke-opacity:1"
         d="m 443.71721,253.77825 c 7.03789,6.94992 13.91896,15.18428 20.1297,24.73504 20.95471,33.00689 23.52453,70.51688 14.95338,100.8169 -8.06526,28.18554 -24.41848,46.44142 -36.81996,56.51029 -12.57005,10.20574 -21.43743,13.19751 -21.43743,13.19751 0,0 4.17954,-8.4815 7.37805,-22.40344 3.26535,-14.21285 4.75206,-32.60067 0.28546,-51.30372 -4.60597,-19.68414 -15.11531,-37.73382 -27.6162,-51.17406 -3.69184,-4.17848 -8.21454,-8.50958 -13.10355,-13.31184 -1.72762,-1.69697 -3.51943,-3.47039 -5.35948,-5.3262 0,0 -1e-5,-1e-5 -1e-5,-1e-5 -7.11508,-7.03092 -15.4101,-15.18344 -23.72085,-24.64589 -8.78443,-9.83986 -17.04806,-21.15669 -23.806,-33.79002 -7.35434,-13.49412 -11.76562,-28.41414 -12.88222,-43.12212 -1.22725,-19.06483 4.08891,-35.05744 10.82491,-46.43874 7.12671,-12.01197 15.91224,-19.13156 21.77758,-22.95426 6.04548,-3.9401 9.7703,-5.16678 9.7703,-5.16678 0,0 -1.80566,3.54027 -3.67698,9.87465 -1.87157,6.33522 -3.57949,15.34419 -2.56398,25.35554 0.94157,9.41986 4.24849,19.30969 10.0963,27.32333 4.35669,6.26269 10.38392,11.58769 17.38799,17.34823 6.79271,5.52471 14.45939,10.50196 23.17704,16.59615 8.54569,5.89605 18.01684,12.52872 27.67658,20.9505 0,0 1e-5,1e-5 1e-5,1e-5 2.5314,2.17213 5.04751,4.4781 7.52936,6.92893 z"
         id="path4332"
         inkscape:original-d="m 364.09089,129.40091 c -13.31716,19.91247 -15.91795,44.04621 -19.25873,68.55665 -8.96968,65.80778 65.62995,55.69718 87.3864,103.37747 24.90216,54.57431 -6.9974,98.69821 -11.67566,147.70296"
         inkscape:connector-curvature="0" />
    </g>
    <path
       style="color:#000000;font-style:normal;font-variant:normal;font-weight:normal;font-stretch:normal;font-size:medium;line-height:normal;font-family:sans-serif;text-indent:0;text-align:start;text-decoration:none;text-decoration-line:none;text-decoration-style:solid;text-decoration-color:#000000;letter-spacing:normal;word-spacing:normal;text-transform:none;direction:ltr;block-progression:tb;writing-mode:lr-tb;baseline-shift:baseline;text-anchor:start;white-space:normal;clip-rule:nonzero;display:inline;overflow:visible;visibility:visible;opacity:1;isolation:auto;mix-blend-mode:normal;color-interpolation:sRGB;color-interpolation-filters:linearRGB;solid-color:#000000;solid-opacity:1;fill:#e7212e;fill-opacity:1;fill-rule:evenodd;stroke:none;stroke-width:15;stroke-linecap:butt;stroke-linejoin:miter;stroke-miterlimit:4;stroke-dasharray:none;stroke-dashoffset:0;stroke-opacity:1;color-rendering:auto;image-rendering:auto;shape-rendering:auto;text-rendering:auto;enable-background:accumulate"
       d="m 147.70713,59.82772 c -8.50646,-0.0527 -16.89438,0.81178 -25.04244,2.51776 l 6.10787,12.87717 c 13.72931,-2.39931 28.16639,-2.11129 42.60369,1.31205 11.64739,2.7618 22.37619,7.34961 31.96493,13.38 l -1.85452,-16.93767 c -8.36728,-4.28535 -17.37165,-7.64688 -26.9186,-9.91064 -8.99145,-2.13204 -17.9906,-3.18377 -26.86093,-3.23867 z m -45.73782,8.85812 c -34.371585,14.0357 -61.754379,43.81357 -71.124516,82.57608 -15.439987,63.87243 23.763891,128.38858 87.568356,144.10714 34.37927,8.46951 69.01076,1.06829 96.14713,-17.52341 l -8.46163,-10.87846 c -23.86456,16.08999 -54.18076,22.40038 -84.37294,14.96239 C 65.163796,267.99527 30.613107,211.13718 44.300501,154.51501 52.617987,120.1071 76.821755,93.7618 107.25173,81.39901 l -5.28242,-12.71317 z m 132.58347,29.3805 0.46498,22.76979 c 14.79671,22.27125 21.14092,50.08469 15.77702,78.20919 l 13.4737,3.21884 c 7.58042,-38.68179 -4.57121,-77.03247 -29.7157,-104.19782 z m 7.65961,159.84448 c -238.1841998,263.81767 -119.0921,131.90884 0,0 z"
       id="path4688"
       inkscape:connector-curvature="0" />
    <flowRoot
       xml:space="preserve"
       id="flowRoot4743"
       style="font-style:normal;font-weight:normal;font-size:66.32247162px;line-height:125%;font-family:sans-serif;letter-spacing:0px;word-spacing:0px;fill:#6c9dbd;fill-opacity:1;stroke:none;stroke-width:1px;stroke-linecap:butt;stroke-linejoin:miter;stroke-opacity:1"
       inkscape:export-filename="C:\Users\Admin\Desktop\eigenes\kt.png"
       inkscape:export-xdpi="44.070534"
       inkscape:export-ydpi="44.070534"
       transform="matrix(0.92275857,0,0,0.92275857,27.371466,-49.53069)"><flowRegion
         id="flowRegion4745"><rect
           id="rect4747"
           width="586.21338"
           height="423.17279"
           x="273.03421"
           y="113.62141"
           style="fill:#6c9dbd;fill-opacity:1" /></flowRegion><flowPara
         id="flowPara4749"
         style="font-style:normal;font-variant:normal;font-weight:600;font-stretch:normal;font-size:132.64494324px;line-height:125%;font-family:Museo;-inkscape-font-specification:'Museo, Semi-Bold';text-align:start;writing-mode:lr-tb;text-anchor:start;fill:#6c9dbd;fill-opacity:1">Iceman</flowPara><flowPara
         id="flowPara4751" /></flowRoot>    <flowRoot
       xml:space="preserve"
       id="flowRoot4753"
       style="font-style:normal;font-weight:normal;font-size:66.32247162px;line-height:125%;font-family:sans-serif;letter-spacing:0px;word-spacing:0px;fill:#e7212e;fill-opacity:1;stroke:none;stroke-width:1px;stroke-linecap:butt;stroke-linejoin:miter;stroke-opacity:1"
       inkscape:export-filename="C:\Users\Admin\Desktop\eigenes\kt.png"
       inkscape:export-xdpi="44.070534"
       inkscape:export-ydpi="44.070534"
       transform="matrix(0.92275857,0,0,0.92275857,27.371466,-49.53069)"><flowRegion
         id="flowRegion4755"><rect
           id="rect4757"
           width="677.25092"
           height="188.04292"
           x="278.47198"
           y="222.69666"
           style="fill:#e7212e;fill-opacity:1" /></flowRegion><flowPara
         id="flowPara4759"
         style="font-style:normal;font-variant:normal;font-weight:600;font-stretch:normal;font-size:132.64494324px;line-height:125%;font-family:Museo;-inkscape-font-specification:'Museo, Semi-Bold';text-align:start;writing-mode:lr-tb;text-anchor:start;fill:#e7212e;fill-opacity:1">Logo</flowPara></flowRoot>    <path
       inkscape:connector-curvature="0"
       style="color:#000000;font-style:normal;font-variant:normal;font-weight:normal;font-stretch:normal;font-size:medium;line-height:normal;font-family:sans-serif;text-indent:0;text-align:start;text-decoration:none;text-decoration-line:none;text-decoration-style:solid;text-decoration-color:#000000;letter-spacing:normal;word-spacing:normal;text-transform:none;direction:ltr;block-progression:tb;writing-mode:lr-tb;baseline-shift:baseline;text-anchor:start;white-space:normal;clip-rule:nonzero;display:inline;overflow:visible;visibility:visible;opacity:1;isolation:auto;mix-blend-mode:normal;color-interpolation:sRGB;color-interpolation-filters:linearRGB;solid-color:#000000;solid-opacity:1;fill:#e7212e;fill-opacity:1;fill-rule:evenodd;stroke:none;stroke-width:15;stroke-linecap:butt;stroke-linejoin:miter;stroke-miterlimit:4;stroke-dasharray:none;stroke-dashoffset:0;stroke-opacity:1;color-rendering:auto;image-rendering:auto;shape-rendering:auto;text-rendering:auto;enable-background:accumulate"
       d="m 140.26161,298.31382 c 8.49346,0.47302 16.91385,0.0241 25.13626,-1.27707 l -5.46399,-13.16329 c -13.83111,1.71786 -28.23631,0.7167 -42.48678,-3.41597 -11.49667,-3.33406 -21.985623,-8.4465 -31.264608,-14.9434 l 1.015157,17.00862 c 8.145268,4.69364 16.972511,8.49607 26.395921,11.22888 8.87508,2.57381 17.81127,4.069 26.66804,4.56223 z m 46.11971,-6.58688 c 35.02324,-12.31986 63.84425,-40.70804 75.11862,-78.9601 C 280.07773,149.73553 244.11023,83.36071 181.16058,64.50805 147.24189,54.34982 112.28694,60.03046 84.264902,77.25832 l 7.913665,11.28335 C 116.80914,73.65077 147.40017,68.84636 177.18786,77.7674 c 55.80415,16.71264 87.5026,75.20881 71.0336,131.08533 -10.0078,33.95479 -35.48403,59.07172 -66.48781,69.91551 l 4.64767,12.9587 z M 55.411896,255.82989 56.072781,233.06495 C 42.394832,210.08963 37.432953,181.99664 44.180268,154.1716 l -13.298184,-3.8808 c -9.482852,38.25989 0.75858,77.16425 24.529812,105.53909 z M 55.661371,95.80217 c 250.931389,-251.72388 125.465699,-125.86195 0,0 z"
       id="path4688-1" />
  </g>
</svg>
