<svg width="20" height="15" viewBox="0 0 28 20" fill="none" xmlns="http://www.w3.org/2000/svg">
<path fill-rule="evenodd" clip-rule="evenodd" d="M2.17635 1.95102C1.67999 1.50409 1.67999 0.782128 2.17635 0.335198C2.67271 -0.111733 3.48726 -0.111733 3.98362 0.335198L24.7417 19.049C25.2381 19.4959 25.2381 20.2179 24.7417 20.6648C24.2453 21.1117 23.4435 21.1117 22.9472 20.6648L19.4854 17.5477C17.7799 18.1437 15.9345 18.4874 13.9999 18.4874C7.63633 18.4874 2.20181 14.9235 0 9.89263C0.979995 7.63506 2.62181 5.6869 4.68361 4.20859L2.17635 1.95102ZM20.3635 9.89267C20.3635 6.72978 17.5126 4.16279 13.9999 4.16279C13.3508 4.16279 12.7272 4.27739 12.129 4.43782L9.36719 1.95106C10.8308 1.52705 12.3835 1.29785 13.9999 1.29785C20.3635 1.29785 25.798 4.86183 27.9998 9.88121C27.1216 11.8981 25.7217 13.6629 23.9526 15.0725L20.058 11.5658C20.2362 11.0386 20.3635 10.4771 20.3635 9.89267ZM13.9998 15.6227C10.4871 15.6227 7.63623 13.0557 7.63623 9.89282C7.63623 9.01042 7.86532 8.17385 8.25986 7.44043L10.258 9.23961C10.2199 9.44589 10.1817 9.66362 10.1817 9.89282C10.1817 11.7951 11.8871 13.3307 13.9998 13.3307C14.2544 13.3307 14.4835 13.2964 14.7253 13.2505L16.7235 15.0497C15.8962 15.4164 14.9798 15.6227 13.9998 15.6227ZM17.7799 9.51512C17.589 7.91076 16.189 6.66164 14.4199 6.48975L17.7799 9.51512Z" fill="#525252"/>
</svg>
